<svg version="1.1" viewBox="0.0 0.0 622.3595800524935 272.6719160104987" fill="none" stroke="none" stroke-linecap="square" stroke-miterlimit="10" xmlns:xlink="http://www.w3.org/1999/xlink" xmlns="http://www.w3.org/2000/svg"><clipPath id="p.0"><path d="m0 0l622.35956 0l0 272.6719l-622.35956 0l0 -272.6719z" clip-rule="nonzero"/></clipPath><g clip-path="url(#p.0)"><path fill="#000000" fill-opacity="0.0" d="m0 0l622.35956 0l0 272.6719l-622.35956 0z" fill-rule="evenodd"/><path fill="#ffffff" d="m0.19685039 0l622.36224 0l0 272.6614l-622.36224 0z" fill-rule="evenodd"/><path stroke="#000000" stroke-width="1.0" stroke-linejoin="round" stroke-linecap="butt" d="m0.19685039 0l622.36224 0l0 272.6614l-622.36224 0z" fill-rule="evenodd"/><path fill="#000000" fill-opacity="0.0" d="m31.026247 217.32545l355.3071 0" fill-rule="evenodd"/><path stroke="#000000" stroke-width="3.0" stroke-linejoin="round" stroke-linecap="butt" d="m31.026247 217.32545l337.3071 0" fill-rule="evenodd"/><path fill="#000000" stroke="#000000" stroke-width="3.0" stroke-linecap="butt" d="m368.33334 222.28065l13.614288 -4.9552l-13.614288 -4.9552z" fill-rule="evenodd"/><path fill="#c9daf8" d="m133.87927 84.93438l309.48032 0l0 43.716545l-309.48032 0z" fill-rule="evenodd"/><path stroke="#000000" stroke-width="3.0" stroke-linejoin="round" stroke-linecap="butt" d="m133.87927 84.93438l309.48032 0l0 43.716545l-309.48032 0z" fill-rule="evenodd"/><path fill="#000000" d="m178.3168 102.71375l0 8.984375q0 0.953125 -0.28125 1.6875q-0.265625 0.75 -0.78125 1.25q-0.515625 0.515625 -1.265625 0.78125q-0.734375 0.265625 -1.65625 0.265625q-0.671875 0 -1.3125 -0.125q-0.640625 -0.125 -1.171875 -0.34375l0 -1.515625q0.28125 0.15625 0.609375 0.265625q0.328125 0.125 0.671875 0.203125q0.34375 0.078125 0.6875 0.125q0.34375 0.046875 0.671875 0.046875q1.03125 0 1.625 -0.65625q0.59375 -0.65625 0.59375 -1.9375l0 -7.71875l-4.484375 0l0 -1.3125l6.09375 0zm-0.953125 -3.84375q0.25 0 0.484375 0.09375q0.234375 0.09375 0.390625 0.28125q0.171875 0.171875 0.265625 0.40625q0.09375 0.21875 0.09375 0.46875q0 0.265625 -0.09375 0.5q-0.09375 0.21875 -0.265625 0.390625q-0.15625 0.171875 -0.390625 0.265625q-0.234375 0.09375 -0.484375 0.09375q-0.265625 0 -0.5 -0.09375q-0.234375 -0.09375 -0.40625 -0.265625q-0.15625 -0.171875 -0.25 -0.390625q-0.09375 -0.234375 -0.09375 -0.5q0 -0.25 0.09375 -0.46875q0.09375 -0.234375 0.25 -0.40625q0.171875 -0.1875 0.40625 -0.28125q0.234375 -0.09375 0.5 -0.09375zm4.5541687 8.609375q0 -0.984375 0.25 -1.859375q0.265625 -0.890625 0.796875 -1.5625q0.546875 -0.671875 1.390625 -1.0625q0.859375 -0.390625 2.03125 -0.390625q0.46875 0 0.921875 0.078125q0.453125 0.0625 0.953125 0.21875l1.40625 -0.359375l0 13.046875l-1.59375 0l0 -3.453125l0.078125 -1.953125q-1.28125 1.828125 -3.078125 1.828125q-0.796875 0 -1.390625 -0.3125q-0.59375 -0.328125 -0.984375 -0.921875q-0.390625 -0.609375 -0.59375 -1.453125q-0.1875 -0.84375 -0.1875 -1.84375zm1.609375 -0.109375q0 0.765625 0.109375 1.375q0.125 0.609375 0.359375 1.03125q0.234375 0.421875 0.578125 0.65625q0.359375 0.234375 0.828125 0.234375q0.59375 0 1.265625 -0.53125q0.671875 -0.546875 1.40625 -1.609375l0 -4.234375q-0.359375 -0.1875 -0.828125 -0.296875q-0.453125 -0.109375 -0.96875 -0.109375q-1.34375 0 -2.046875 0.890625q-0.703125 0.890625 -0.703125 2.59375zm22.967712 1.609375q0.296875 0 0.578125 0.125q0.28125 0.125 0.484375 0.328125q0.203125 0.203125 0.3125 0.484375q0.125 0.28125 0.125 0.59375q0 0.3125 -0.125 0.59375q-0.109375 0.265625 -0.3125 0.46875q-0.203125 0.203125 -0.484375 0.3125q-0.28125 0.125 -0.578125 0.125q-0.328125 0 -0.609375 -0.125q-0.265625 -0.109375 -0.46875 -0.3125q-0.203125 -0.203125 -0.328125 -0.46875q-0.109375 -0.28125 -0.109375 -0.59375q0 -0.3125 0.109375 -0.59375q0.125 -0.28125 0.328125 -0.484375q0.203125 -0.203125 0.46875 -0.328125q0.28125 -0.125 0.609375 -0.125zm14.007294 2.875l-1.421875 0l-0.0625 -1.46875q-0.40625 0.46875 -0.78125 0.78125q-0.359375 0.3125 -0.734375 0.515625q-0.359375 0.1875 -0.734375 0.25q-0.359375 0.078125 -0.765625 0.078125q-1.421875 0 -2.140625 -0.828125q-0.71875 -0.828125 -0.71875 -2.5l0 -5.96875l1.59375 0l0 5.84375q0 2.109375 1.578125 2.109375q0.296875 0 0.5625 -0.078125q0.28125 -0.09375 0.578125 -0.3125q0.3125 -0.21875 0.65625 -0.578125q0.359375 -0.359375 0.796875 -0.921875l0 -6.0625l1.59375 0l0 9.140625zm3.2729187 -9.140625l1.453125 0l0.046875 1.6875q0.8125 -0.984375 1.59375 -1.421875q0.796875 -0.4375 1.59375 -0.4375q1.421875 0 2.15625 0.921875q0.734375 0.921875 0.671875 2.734375l-1.59375 0q0.015625 -1.203125 -0.359375 -1.734375q-0.375 -0.546875 -1.109375 -0.546875q-0.3125 0 -0.640625 0.109375q-0.328125 0.109375 -0.671875 0.359375q-0.328125 0.25 -0.71875 0.640625q-0.375 0.390625 -0.8125 0.953125l0 5.875l-1.609375 0l0 -9.140625zm13.007294 -2.421875l-2.703125 0l0 -1.3125l4.296875 0l0 11.546875l2.734375 0l0 1.328125l-7.34375 0l0 -1.328125l3.015625 0l0 -10.234375zm21.811462 15.296875l-1.5 0l0 -18.65625l1.5 0l0 18.65625zm23.452087 -3.734375l-1.59375 0l0 -5.84375q0 -1.046875 -0.390625 -1.5625q-0.390625 -0.53125 -1.140625 -0.53125q-0.3125 0 -0.59375 0.09375q-0.28125 0.078125 -0.578125 0.296875q-0.296875 0.203125 -0.65625 0.578125q-0.359375 0.359375 -0.8125 0.90625l0 6.0625l-1.59375 0l0 -12.875l1.59375 0l0 3.734375l-0.0625 1.4375q0.375 -0.453125 0.734375 -0.75q0.359375 -0.3125 0.71875 -0.5q0.359375 -0.1875 0.734375 -0.265625q0.375 -0.09375 0.78125 -0.09375q1.359375 0 2.109375 0.84375q0.75 0.828125 0.75 2.5l0 5.96875zm10.866669 -4.640625q0 1.0625 -0.3125 1.953125q-0.296875 0.890625 -0.859375 1.53125q-0.5625 0.625 -1.375 0.96875q-0.8125 0.34375 -1.84375 0.34375q-0.984375 0 -1.765625 -0.296875q-0.765625 -0.3125 -1.3125 -0.890625q-0.546875 -0.59375 -0.828125 -1.46875q-0.28125 -0.875 -0.28125 -2.015625q0 -1.0625 0.296875 -1.9375q0.296875 -0.890625 0.859375 -1.515625q0.5625 -0.640625 1.375 -0.984375q0.8125 -0.359375 1.84375 -0.359375q0.984375 0 1.765625 0.3125q0.78125 0.296875 1.3125 0.890625q0.546875 0.578125 0.828125 1.453125q0.296875 0.875 0.296875 2.015625zm-1.625 0.0625q0 -0.84375 -0.1875 -1.46875q-0.1875 -0.640625 -0.53125 -1.0625q-0.34375 -0.421875 -0.84375 -0.640625q-0.5 -0.21875 -1.109375 -0.21875q-0.703125 0 -1.21875 0.28125q-0.5 0.28125 -0.828125 0.75q-0.3125 0.453125 -0.46875 1.078125q-0.15625 0.609375 -0.15625 1.28125q0 0.859375 0.1875 1.5q0.1875 0.625 0.53125 1.046875q0.359375 0.421875 0.84375 0.640625q0.5 0.21875 1.109375 0.21875q0.71875 0 1.21875 -0.28125q0.5 -0.28125 0.828125 -0.734375q0.328125 -0.46875 0.46875 -1.078125q0.15625 -0.625 0.15625 -1.3125zm11.163544 2.078125q0 0.484375 -0.171875 0.875q-0.15625 0.375 -0.4375 0.671875q-0.28125 0.296875 -0.65625 0.515625q-0.375 0.203125 -0.796875 0.34375q-0.421875 0.125 -0.875 0.1875q-0.453125 0.0625 -0.875 0.0625q-0.921875 0 -1.703125 -0.078125q-0.78125 -0.078125 -1.53125 -0.265625l0 -1.453125q0.796875 0.234375 1.59375 0.359375q0.796875 0.109375 1.578125 0.109375q1.140625 0 1.6875 -0.3125q0.546875 -0.3125 0.546875 -0.890625q0 -0.234375 -0.09375 -0.421875q-0.078125 -0.203125 -0.3125 -0.375q-0.21875 -0.1875 -0.703125 -0.375q-0.484375 -0.203125 -1.3125 -0.4375q-0.609375 -0.1875 -1.140625 -0.421875q-0.515625 -0.234375 -0.90625 -0.546875q-0.375 -0.328125 -0.59375 -0.75q-0.21875 -0.421875 -0.21875 -1.015625q0 -0.375 0.171875 -0.828125q0.171875 -0.453125 0.59375 -0.84375q0.4375 -0.40625 1.171875 -0.65625q0.734375 -0.265625 1.8125 -0.265625q0.546875 0 1.203125 0.0625q0.65625 0.0625 1.359375 0.203125l0 1.40625q-0.75 -0.171875 -1.421875 -0.25q-0.65625 -0.09375 -1.15625 -0.09375q-0.59375 0 -1.0 0.09375q-0.390625 0.078125 -0.65625 0.25q-0.25 0.15625 -0.359375 0.375q-0.109375 0.203125 -0.109375 0.453125q0 0.25 0.09375 0.453125q0.109375 0.1875 0.359375 0.375q0.265625 0.1875 0.71875 0.375q0.46875 0.1875 1.21875 0.40625q0.8125 0.234375 1.359375 0.5q0.5625 0.25 0.90625 0.578125q0.359375 0.3125 0.5 0.71875q0.15625 0.40625 0.15625 0.90625zm10.382294 2.375q-0.53125 0.140625 -1.109375 0.1875q-0.578125 0.0625 -1.171875 0.0625q-1.71875 0 -2.5625 -0.78125q-0.84375 -0.78125 -0.84375 -2.390625l0 -4.765625l-2.5625 0l0 -1.328125l2.5625 0l0 -2.515625l1.578125 -0.40625l0 2.921875l4.109375 0l0 1.328125l-4.109375 0l0 4.640625q0 0.984375 0.515625 1.46875q0.53125 0.484375 1.546875 0.484375q0.4375 0 0.953125 -0.0625q0.53125 -0.0625 1.09375 -0.21875l0 1.375zm9.288544 -4.09375l-5.453125 0l0 -1.5l5.453125 0l0 1.5zm11.976044 -7.171875q-1.25 -0.265625 -2.15625 -0.265625q-2.140625 0 -2.140625 2.234375l0 1.609375l4.015625 0l0 1.3125l-4.015625 0l0 6.5l-1.609375 0l0 -6.5l-2.9375 0l0 -1.3125l2.9375 0l0 -1.515625q0 -3.65625 3.8125 -3.65625q0.9375 0 2.09375 0.21875l0 1.375zm-9.578125 2.25l0 0zm12.085419 0l1.453125 0l0.046875 1.6875q0.8125 -0.984375 1.59375 -1.421875q0.796875 -0.4375 1.59375 -0.4375q1.421875 0 2.15625 0.921875q0.734375 0.921875 0.671875 2.734375l-1.59375 0q0.015625 -1.203125 -0.359375 -1.734375q-0.375 -0.546875 -1.109375 -0.546875q-0.3125 0 -0.640625 0.109375q-0.328125 0.109375 -0.671875 0.359375q-0.328125 0.25 -0.71875 0.640625q-0.375 0.390625 -0.8125 0.953125l0 5.875l-1.609375 0l0 -9.140625zm17.851044 4.5q0 1.0625 -0.3125 1.953125q-0.296875 0.890625 -0.859375 1.53125q-0.5625 0.625 -1.375 0.96875q-0.8125 0.34375 -1.84375 0.34375q-0.984375 0 -1.765625 -0.296875q-0.765625 -0.3125 -1.3125 -0.890625q-0.546875 -0.59375 -0.828125 -1.46875q-0.28125 -0.875 -0.28125 -2.015625q0 -1.0625 0.296875 -1.9375q0.296875 -0.890625 0.859375 -1.515625q0.5625 -0.640625 1.375 -0.984375q0.8125 -0.359375 1.84375 -0.359375q0.984375 0 1.765625 0.3125q0.78125 0.296875 1.3125 0.890625q0.546875 0.578125 0.828125 1.453125q0.296875 0.875 0.296875 2.015625zm-1.625 0.0625q0 -0.84375 -0.1875 -1.46875q-0.1875 -0.640625 -0.53125 -1.0625q-0.34375 -0.421875 -0.84375 -0.640625q-0.5 -0.21875 -1.109375 -0.21875q-0.703125 0 -1.21875 0.28125q-0.5 0.28125 -0.828125 0.75q-0.3125 0.453125 -0.46875 1.078125q-0.15625 0.609375 -0.15625 1.28125q0 0.859375 0.1875 1.5q0.1875 0.625 0.53125 1.046875q0.359375 0.421875 0.84375 0.640625q0.5 0.21875 1.109375 0.21875q0.71875 0 1.21875 -0.28125q0.5 -0.28125 0.828125 -0.734375q0.328125 -0.46875 0.46875 -1.078125q0.15625 -0.625 0.15625 -1.3125zm10.444794 4.578125l0 -6.5625q0 -0.4375 -0.03125 -0.703125q-0.03125 -0.28125 -0.109375 -0.4375q-0.0625 -0.15625 -0.171875 -0.21875q-0.109375 -0.0625 -0.25 -0.0625q-0.1875 0 -0.34375 0.109375q-0.15625 0.109375 -0.34375 0.359375q-0.171875 0.234375 -0.390625 0.640625q-0.203125 0.40625 -0.5 1.0l0 5.875l-1.4375 0l0 -6.390625q0 -0.5 -0.03125 -0.8125q-0.03125 -0.3125 -0.109375 -0.484375q-0.0625 -0.171875 -0.171875 -0.234375q-0.109375 -0.0625 -0.265625 -0.0625q-0.171875 0 -0.3125 0.09375q-0.140625 0.078125 -0.328125 0.328125q-0.171875 0.234375 -0.390625 0.640625q-0.21875 0.40625 -0.515625 1.046875l0 5.875l-1.46875 0l0 -9.140625l1.21875 0l0.078125 1.734375q0.234375 -0.515625 0.453125 -0.875q0.21875 -0.375 0.453125 -0.59375q0.25 -0.21875 0.515625 -0.328125q0.265625 -0.109375 0.59375 -0.109375q0.734375 0 1.109375 0.484375q0.390625 0.484375 0.390625 1.5q0.21875 -0.484375 0.421875 -0.84375q0.21875 -0.375 0.453125 -0.625q0.25 -0.25 0.53125 -0.375q0.296875 -0.140625 0.6875 -0.140625q1.71875 0 1.71875 2.65625l0 6.65625l-1.453125 0zm10.132294 -4.21875l-5.453125 0l0 -1.5l5.453125 0l0 1.5zm11.210419 4.21875l-1.421875 0l-0.0625 -1.46875q-0.40625 0.46875 -0.78125 0.78125q-0.359375 0.3125 -0.734375 0.515625q-0.359375 0.1875 -0.734375 0.25q-0.359375 0.078125 -0.765625 0.078125q-1.421875 0 -2.140625 -0.828125q-0.71875 -0.828125 -0.71875 -2.5l0 -5.96875l1.59375 0l0 5.84375q0 2.109375 1.578125 2.109375q0.296875 0 0.5625 -0.078125q0.28125 -0.09375 0.578125 -0.3125q0.3125 -0.21875 0.65625 -0.578125q0.359375 -0.359375 0.796875 -0.921875l0 -6.0625l1.59375 0l0 9.140625zm3.2729187 -9.140625l1.453125 0l0.046875 1.6875q0.8125 -0.984375 1.59375 -1.421875q0.796875 -0.4375 1.59375 -0.4375q1.421875 0 2.15625 0.921875q0.734375 0.921875 0.671875 2.734375l-1.59375 0q0.015625 -1.203125 -0.359375 -1.734375q-0.375 -0.546875 -1.109375 -0.546875q-0.3125 0 -0.640625 0.109375q-0.328125 0.109375 -0.671875 0.359375q-0.328125 0.25 -0.71875 0.640625q-0.375 0.390625 -0.8125 0.953125l0 5.875l-1.609375 0l0 -9.140625zm13.007294 -2.421875l-2.703125 0l0 -1.3125l4.296875 0l0 11.546875l2.734375 0l0 1.328125l-7.34375 0l0 -1.328125l3.015625 0l0 -10.234375z" fill-rule="nonzero"/><path fill="#000000" fill-opacity="0.0" d="m529.0105 217.32645l61.858276 0" fill-rule="evenodd"/><path stroke="#000000" stroke-width="3.0" stroke-linejoin="round" stroke-linecap="butt" d="m529.01056 217.32645l43.858276 0" fill-rule="evenodd"/><path fill="#000000" stroke="#000000" stroke-width="3.0" stroke-linecap="butt" d="m572.86884 222.28165l13.614258 -4.9552l-13.614258 -4.9552z" fill-rule="evenodd"/><path fill="#000000" fill-opacity="0.0" d="m82.19423 217.6273l0 -110.834656l51.685043 0" fill-rule="evenodd"/><path stroke="#000000" stroke-width="3.0" stroke-linejoin="round" stroke-linecap="butt" d="m82.19423 217.6273l0 -110.834656l33.685036 0" fill-rule="evenodd"/><path fill="#000000" stroke="#000000" stroke-width="3.0" stroke-linecap="butt" d="m115.879265 111.74785l13.614296 -4.9552l-13.614296 -4.9551926z" fill-rule="evenodd"/><path fill="#fff2cc" d="m338.32547 195.4672l190.67715 0l0 43.716537l-190.67715 0z" fill-rule="evenodd"/><path stroke="#000000" stroke-width="3.0" stroke-linejoin="round" stroke-linecap="butt" d="m338.32547 195.4672l190.67715 0l0 43.716537l-190.67715 0z" fill-rule="evenodd"/><path fill="#000000" d="m358.75638 215.10483l0 8.984375q0 0.953125 -0.28125 1.6875q-0.265625 0.75 -0.78125 1.25q-0.515625 0.515625 -1.265625 0.78125q-0.734375 0.265625 -1.65625 0.265625q-0.671875 0 -1.3125 -0.125q-0.640625 -0.125 -1.171875 -0.34375l0 -1.515625q0.28125 0.15625 0.609375 0.265625q0.328125 0.125 0.671875 0.203125q0.34375 0.078125 0.6875 0.125q0.34375 0.046875 0.671875 0.046875q1.03125 0 1.625 -0.65625q0.59375 -0.65625 0.59375 -1.9375l0 -7.71875l-4.484375 0l0 -1.3125l6.09375 0zm-0.953125 -3.84375q0.25 0 0.484375 0.09375q0.234375 0.09375 0.390625 0.28125q0.171875 0.171875 0.265625 0.40625q0.09375 0.21875 0.09375 0.46875q0 0.265625 -0.09375 0.5q-0.09375 0.21875 -0.265625 0.390625q-0.15625 0.171875 -0.390625 0.265625q-0.234375 0.09375 -0.484375 0.09375q-0.265625 0 -0.5 -0.09375q-0.234375 -0.09375 -0.40625 -0.265625q-0.15625 -0.171875 -0.25 -0.390625q-0.09375 -0.234375 -0.09375 -0.5q0 -0.25 0.09375 -0.46875q0.09375 -0.234375 0.25 -0.40625q0.171875 -0.1875 0.40625 -0.28125q0.234375 -0.09375 0.5 -0.09375zm4.5541687 8.609375q0 -0.984375 0.25 -1.859375q0.265625 -0.890625 0.796875 -1.5625q0.546875 -0.671875 1.390625 -1.0625q0.859375 -0.390625 2.03125 -0.390625q0.46875 0 0.921875 0.078125q0.453125 0.0625 0.953125 0.21875l1.40625 -0.359375l0 13.046875l-1.59375 0l0 -3.453125l0.078125 -1.953125q-1.28125 1.828125 -3.078125 1.828125q-0.796875 0 -1.390625 -0.3125q-0.59375 -0.328125 -0.984375 -0.921875q-0.390625 -0.609375 -0.59375 -1.453125q-0.1875 -0.84375 -0.1875 -1.84375zm1.609375 -0.109375q0 0.765625 0.109375 1.375q0.125 0.609375 0.359375 1.03125q0.234375 0.421875 0.578125 0.65625q0.359375 0.234375 0.828125 0.234375q0.59375 0 1.265625 -0.53125q0.671875 -0.546875 1.40625 -1.609375l0 -4.234375q-0.359375 -0.1875 -0.828125 -0.296875q-0.453125 -0.109375 -0.96875 -0.109375q-1.34375 0 -2.046875 0.890625q-0.703125 0.890625 -0.703125 2.59375zm24.077087 -8.390625l-0.265625 4.28125l-1.5625 0l-0.25 -4.28125l2.078125 0zm9.147919 10.0q0.296875 0 0.578125 0.125q0.28125 0.125 0.484375 0.328125q0.203125 0.203125 0.3125 0.484375q0.125 0.28125 0.125 0.59375q0 0.3125 -0.125 0.59375q-0.109375 0.265625 -0.3125 0.46875q-0.203125 0.203125 -0.484375 0.3125q-0.28125 0.125 -0.578125 0.125q-0.328125 0 -0.609375 -0.125q-0.265625 -0.109375 -0.46875 -0.3125q-0.203125 -0.203125 -0.328125 -0.46875q-0.109375 -0.28125 -0.109375 -0.59375q0 -0.3125 0.109375 -0.59375q0.125 -0.28125 0.328125 -0.484375q0.203125 -0.203125 0.46875 -0.328125q0.28125 -0.125 0.609375 -0.125zm14.007294 2.875l-1.59375 0l0 -5.84375q0 -1.046875 -0.390625 -1.5625q-0.390625 -0.53125 -1.140625 -0.53125q-0.3125 0 -0.59375 0.09375q-0.28125 0.078125 -0.578125 0.296875q-0.296875 0.203125 -0.65625 0.578125q-0.359375 0.359375 -0.8125 0.90625l0 6.0625l-1.59375 0l0 -12.875l1.59375 0l0 3.734375l-0.0625 1.4375q0.375 -0.453125 0.734375 -0.75q0.359375 -0.3125 0.71875 -0.5q0.359375 -0.1875 0.734375 -0.265625q0.375 -0.09375 0.78125 -0.09375q1.359375 0 2.109375 0.84375q0.75 0.828125 0.75 2.5l0 5.96875zm10.866669 -4.640625q0 1.0625 -0.3125 1.953125q-0.296875 0.890625 -0.859375 1.53125q-0.5625 0.625 -1.375 0.96875q-0.8125 0.34375 -1.84375 0.34375q-0.984375 0 -1.765625 -0.296875q-0.765625 -0.3125 -1.3125 -0.890625q-0.546875 -0.59375 -0.828125 -1.46875q-0.28125 -0.875 -0.28125 -2.015625q0 -1.0625 0.296875 -1.9375q0.296875 -0.890625 0.859375 -1.515625q0.5625 -0.640625 1.375 -0.984375q0.8125 -0.359375 1.84375 -0.359375q0.984375 0 1.765625 0.3125q0.78125 0.296875 1.3125 0.890625q0.546875 0.578125 0.828125 1.453125q0.296875 0.875 0.296875 2.015625zm-1.625 0.0625q0 -0.84375 -0.1875 -1.46875q-0.1875 -0.640625 -0.53125 -1.0625q-0.34375 -0.421875 -0.84375 -0.640625q-0.5 -0.21875 -1.109375 -0.21875q-0.703125 0 -1.21875 0.28125q-0.5 0.28125 -0.828125 0.75q-0.3125 0.453125 -0.46875 1.078125q-0.15625 0.609375 -0.15625 1.28125q0 0.859375 0.1875 1.5q0.1875 0.625 0.53125 1.046875q0.359375 0.421875 0.84375 0.640625q0.5 0.21875 1.109375 0.21875q0.71875 0 1.21875 -0.28125q0.5 -0.28125 0.828125 -0.734375q0.328125 -0.46875 0.46875 -1.078125q0.15625 -0.625 0.15625 -1.3125zm11.163544 2.078125q0 0.484375 -0.171875 0.875q-0.15625 0.375 -0.4375 0.671875q-0.28125 0.296875 -0.65625 0.515625q-0.375 0.203125 -0.796875 0.34375q-0.421875 0.125 -0.875 0.1875q-0.453125 0.0625 -0.875 0.0625q-0.921875 0 -1.703125 -0.078125q-0.78125 -0.078125 -1.53125 -0.265625l0 -1.453125q0.796875 0.234375 1.59375 0.359375q0.796875 0.109375 1.578125 0.109375q1.140625 0 1.6875 -0.3125q0.546875 -0.3125 0.546875 -0.890625q0 -0.234375 -0.09375 -0.421875q-0.078125 -0.203125 -0.3125 -0.375q-0.21875 -0.1875 -0.703125 -0.375q-0.484375 -0.203125 -1.3125 -0.4375q-0.609375 -0.1875 -1.140625 -0.421875q-0.515625 -0.234375 -0.90625 -0.546875q-0.375 -0.328125 -0.59375 -0.75q-0.21875 -0.421875 -0.21875 -1.015625q0 -0.375 0.171875 -0.828125q0.171875 -0.453125 0.59375 -0.84375q0.4375 -0.40625 1.171875 -0.65625q0.734375 -0.265625 1.8125 -0.265625q0.546875 0 1.203125 0.0625q0.65625 0.0625 1.359375 0.203125l0 1.40625q-0.75 -0.171875 -1.421875 -0.25q-0.65625 -0.09375 -1.15625 -0.09375q-0.59375 0 -1.0 0.09375q-0.390625 0.078125 -0.65625 0.25q-0.25 0.15625 -0.359375 0.375q-0.109375 0.203125 -0.109375 0.453125q0 0.25 0.09375 0.453125q0.109375 0.1875 0.359375 0.375q0.265625 0.1875 0.71875 0.375q0.46875 0.1875 1.21875 0.40625q0.8125 0.234375 1.359375 0.5q0.5625 0.25 0.90625 0.578125q0.359375 0.3125 0.5 0.71875q0.15625 0.40625 0.15625 0.90625zm10.382294 2.375q-0.53125 0.140625 -1.109375 0.1875q-0.578125 0.0625 -1.171875 0.0625q-1.71875 0 -2.5625 -0.78125q-0.84375 -0.78125 -0.84375 -2.390625l0 -4.765625l-2.5625 0l0 -1.328125l2.5625 0l0 -2.515625l1.578125 -0.40625l0 2.921875l4.109375 0l0 1.328125l-4.109375 0l0 4.640625q0 0.984375 0.515625 1.46875q0.53125 0.484375 1.546875 0.484375q0.4375 0 0.953125 -0.0625q0.53125 -0.0625 1.09375 -0.21875l0 1.375zm20.733337 -5.765625l-7.828125 0l0 -1.328125l7.828125 0l0 1.328125zm0 3.171875l-7.828125 0l0 -1.328125l7.828125 0l0 1.328125zm15.827087 -10.15625l-0.25 4.28125l-1.5 0l-0.265625 -4.28125l2.015625 0zm3.546875 0l-0.25 4.28125l-1.5 0l-0.265625 -4.28125l2.015625 0z" fill-rule="nonzero"/><path fill="#6d9eeb" d="m485.77307 215.6517l8.59375 0l0 8.59375l-8.59375 0l0 -8.59375z" fill-rule="nonzero"/><path fill="#000000" d="m500.07275 211.37045l-0.25 4.28125l-1.5 0l-0.265625 -4.28125l2.015625 0zm3.546875 0l-0.25 4.28125l-1.5 0l-0.265625 -4.28125l2.015625 0zm8.522949 0l-0.26565552 4.28125l-1.5625 0l-0.25 -4.28125l2.0781555 0z" fill-rule="nonzero"/><path fill="#000000" fill-opacity="0.0" d="m443.3596 106.79265l46.48819 0l0 102.92914" fill-rule="evenodd"/><path stroke="#000000" stroke-width="3.0" stroke-linejoin="round" stroke-linecap="butt" d="m443.3596 106.79265l46.48819 0l0 84.92914" fill-rule="evenodd"/><path fill="#000000" stroke="#000000" stroke-width="3.0" stroke-linecap="butt" d="m484.89258 191.72179l4.9552 13.614288l4.9552 -13.614288z" fill-rule="evenodd"/><path fill="#000000" fill-opacity="0.0" d="m17.24672 16.868767l589.10236 0l0 42.015747l-589.10236 0z" fill-rule="evenodd"/><path fill="#fff2cc" d="m169.84883 25.868767l153.85939 0l0 22.399998l-153.85939 0l0 -22.399998z" fill-rule="nonzero"/><path fill="#c9daf8" d="m323.70822 25.868767l235.91776 0l0 22.399998l-235.91776 0l0 -22.399998z" fill-rule="nonzero"/><path fill="#fff2cc" d="m559.626 25.868767l30.77185 0l0 22.399998l-30.77185 0l0 -22.399998z" fill-rule="nonzero"/><path fill="#000000" d="m34.949844 41.288765q0 0.484375 -0.171875 0.875q-0.15625 0.375 -0.4375 0.671875q-0.28125 0.296875 -0.65625 0.515625q-0.375 0.203125 -0.796875 0.34375q-0.421875 0.125 -0.875 0.1875q-0.453125 0.0625 -0.875 0.0625q-0.921875 0 -1.703125 -0.078125q-0.78125 -0.078125 -1.53125 -0.265625l0 -1.453125q0.796875 0.234375 1.59375 0.359375q0.796875 0.109375 1.578125 0.109375q1.140625 0 1.6875 -0.3125q0.546875 -0.3125 0.546875 -0.890625q0 -0.234375 -0.09375 -0.421875q-0.078125 -0.203125 -0.3125 -0.375q-0.21875 -0.1875 -0.703125 -0.375q-0.484375 -0.203125 -1.3125 -0.4375q-0.609375 -0.1875 -1.140625 -0.421875q-0.515625 -0.234375 -0.90625 -0.546875q-0.375 -0.328125 -0.59375 -0.75q-0.21875 -0.421875 -0.21875 -1.015625q0 -0.375 0.171875 -0.828125q0.171875 -0.453125 0.59375 -0.84375q0.4375 -0.40625 1.171875 -0.65625q0.734375 -0.265625 1.8125 -0.265625q0.546875 0 1.203125 0.0625q0.65625 0.0625 1.359375 0.203125l0 1.40625q-0.75 -0.171875 -1.421875 -0.25q-0.65625 -0.09375 -1.15625 -0.09375q-0.59375 0 -1.0 0.09375q-0.390625 0.078125 -0.65625 0.25q-0.25 0.15625 -0.359375 0.375q-0.109375 0.203125 -0.109375 0.453125q0 0.25 0.09375 0.453125q0.109375 0.1875 0.359375 0.375q0.265625 0.1875 0.71875 0.375q0.46875 0.1875 1.21875 0.40625q0.8125 0.234375 1.359375 0.5q0.5625 0.25 0.90625 0.578125q0.359375 0.3125 0.5 0.71875q0.15625 0.40625 0.15625 0.90625zm6.1322937 -5.328125l-2.703125 0l0 -1.3125l4.296875 0l0 7.8125l2.734375 0l0 1.328125l-7.34375 0l0 -1.328125l3.015625 0l0 -6.5zm0.546875 -5.15625q0.265625 0 0.484375 0.09375q0.234375 0.09375 0.40625 0.28125q0.171875 0.171875 0.265625 0.390625q0.09375 0.21875 0.09375 0.484375q0 0.25 -0.09375 0.484375q-0.09375 0.234375 -0.265625 0.40625q-0.171875 0.171875 -0.40625 0.265625q-0.21875 0.09375 -0.484375 0.09375q-0.265625 0 -0.5 -0.09375q-0.21875 -0.09375 -0.390625 -0.265625q-0.15625 -0.171875 -0.265625 -0.40625q-0.09375 -0.234375 -0.09375 -0.484375q0 -0.265625 0.09375 -0.484375q0.109375 -0.21875 0.265625 -0.390625q0.171875 -0.1875 0.390625 -0.28125q0.234375 -0.09375 0.5 -0.09375zm6.1322937 8.609375q0 -1.171875 0.3125 -2.078125q0.3125 -0.90625 0.90625 -1.53125q0.59375 -0.625 1.40625 -0.9375q0.828125 -0.328125 1.84375 -0.328125q0.4375 0 0.859375 0.0625q0.421875 0.046875 0.828125 0.15625l0 -3.84375l1.59375 0l0 12.875l-1.421875 0l-0.046875 -1.734375q-0.671875 0.96875 -1.453125 1.4375q-0.765625 0.453125 -1.671875 0.453125q-0.78125 0 -1.375 -0.3125q-0.59375 -0.328125 -1.0 -0.921875q-0.390625 -0.609375 -0.59375 -1.4375q-0.1875 -0.84375 -0.1875 -1.859375zm1.609375 -0.109375q0 1.65625 0.484375 2.484375q0.5 0.8125 1.390625 0.8125q0.59375 0 1.265625 -0.53125q0.671875 -0.546875 1.40625 -1.609375l0 -4.234375q-0.390625 -0.1875 -0.859375 -0.28125q-0.46875 -0.09375 -0.9375 -0.09375q-1.296875 0 -2.03125 0.84375q-0.71875 0.828125 -0.71875 2.609375zm16.835419 -0.578125q0 0.34375 -0.015625 0.578125q0 0.21875 -0.03125 0.421875l-6.421875 0q0 1.40625 0.78125 2.15625q0.796875 0.75 2.265625 0.75q0.40625 0 0.796875 -0.03125q0.40625 -0.03125 0.78125 -0.078125q0.375 -0.0625 0.71875 -0.125q0.34375 -0.078125 0.625 -0.15625l0 1.296875q-0.640625 0.1875 -1.46875 0.296875q-0.8125 0.109375 -1.6875 0.109375q-1.171875 0 -2.015625 -0.3125q-0.84375 -0.3125 -1.390625 -0.921875q-0.546875 -0.609375 -0.8125 -1.484375q-0.25 -0.875 -0.25 -2.0q0 -0.953125 0.28125 -1.8125q0.28125 -0.859375 0.8125 -1.515625q0.53125 -0.65625 1.296875 -1.03125q0.78125 -0.390625 1.765625 -0.390625q0.953125 0 1.6875 0.3125q0.75 0.296875 1.25 0.84375q0.5 0.546875 0.765625 1.34375q0.265625 0.78125 0.265625 1.75zm-1.65625 -0.21875q0.03125 -0.609375 -0.125 -1.109375q-0.140625 -0.515625 -0.453125 -0.875q-0.296875 -0.375 -0.75 -0.578125q-0.453125 -0.203125 -1.0625 -0.203125q-0.515625 0 -0.953125 0.203125q-0.421875 0.203125 -0.734375 0.5625q-0.296875 0.359375 -0.5 0.875q-0.1875 0.515625 -0.234375 1.125l4.8125 0zm11.288544 4.9375q-0.625 0.25 -1.28125 0.359375q-0.640625 0.109375 -1.328125 0.109375q-2.171875 0 -3.34375 -1.171875q-1.171875 -1.171875 -1.171875 -3.4375q0 -1.078125 0.328125 -1.953125q0.34375 -0.890625 0.953125 -1.515625q0.609375 -0.640625 1.453125 -0.984375q0.859375 -0.34375 1.875 -0.34375q0.71875 0 1.328125 0.109375q0.625 0.09375 1.1875 0.328125l0 1.515625q-0.59375 -0.3125 -1.21875 -0.453125q-0.609375 -0.140625 -1.265625 -0.140625q-0.609375 0 -1.15625 0.234375q-0.53125 0.234375 -0.9375 0.671875q-0.40625 0.421875 -0.65625 1.0625q-0.234375 0.625 -0.234375 1.421875q0 1.65625 0.796875 2.484375q0.8125 0.8125 2.25 0.8125q0.640625 0 1.25 -0.140625q0.609375 -0.140625 1.171875 -0.4375l0 1.46875zm10.507294 0.34375l-1.59375 0l0 -5.84375q0 -1.046875 -0.390625 -1.5625q-0.390625 -0.53125 -1.140625 -0.53125q-0.3125 0 -0.59375 0.09375q-0.28125 0.078125 -0.578125 0.296875q-0.296875 0.203125 -0.65625 0.578125q-0.359375 0.359375 -0.8125 0.90625l0 6.0625l-1.59375 0l0 -12.875l1.59375 0l0 3.734375l-0.0625 1.4375q0.375 -0.453125 0.734375 -0.75q0.359375 -0.3125 0.71875 -0.5q0.359375 -0.1875 0.734375 -0.265625q0.375 -0.09375 0.78125 -0.09375q1.359375 0 2.109375 0.84375q0.75 0.828125 0.75 2.5l0 5.96875zm8.772919 0l-0.03125 -1.234375q-0.75 0.75 -1.515625 1.078125q-0.765625 0.3125 -1.625 0.3125q-0.78125 0 -1.34375 -0.1875q-0.546875 -0.203125 -0.90625 -0.546875q-0.359375 -0.359375 -0.53125 -0.828125q-0.15625 -0.484375 -0.15625 -1.03125q0 -1.375 1.015625 -2.15625q1.03125 -0.78125 3.03125 -0.78125l1.890625 0l0 -0.796875q0 -0.8125 -0.515625 -1.296875q-0.515625 -0.5 -1.578125 -0.5q-0.78125 0 -1.53125 0.1875q-0.75 0.171875 -1.546875 0.484375l0 -1.4375q0.296875 -0.109375 0.65625 -0.203125q0.375 -0.109375 0.78125 -0.1875q0.40625 -0.078125 0.859375 -0.125q0.453125 -0.0625 0.90625 -0.0625q0.828125 0 1.484375 0.1875q0.671875 0.171875 1.125 0.546875q0.46875 0.375 0.703125 0.953125q0.25 0.5625 0.25 1.328125l0 6.296875l-1.421875 0zm-0.171875 -4.15625l-2.015625 0q-0.578125 0 -1.015625 0.125q-0.421875 0.109375 -0.703125 0.328125q-0.265625 0.21875 -0.40625 0.53125q-0.125 0.296875 -0.125 0.671875q0 0.265625 0.078125 0.515625q0.078125 0.234375 0.265625 0.421875q0.1875 0.1875 0.46875 0.296875q0.296875 0.109375 0.71875 0.109375q0.546875 0 1.25 -0.328125q0.703125 -0.34375 1.484375 -1.0625l0 -1.609375zm7.6791687 -3.671875l-2.703125 0l0 -1.3125l4.296875 0l0 7.8125l2.734375 0l0 1.328125l-7.34375 0l0 -1.328125l3.015625 0l0 -6.5zm0.546875 -5.15625q0.265625 0 0.484375 0.09375q0.234375 0.09375 0.40625 0.28125q0.171875 0.171875 0.265625 0.390625q0.09375 0.21875 0.09375 0.484375q0 0.25 -0.09375 0.484375q-0.09375 0.234375 -0.265625 0.40625q-0.171875 0.171875 -0.40625 0.265625q-0.21875 0.09375 -0.484375 0.09375q-0.265625 0 -0.5 -0.09375q-0.21875 -0.09375 -0.390625 -0.265625q-0.15625 -0.171875 -0.265625 -0.40625q-0.09375 -0.234375 -0.09375 -0.484375q0 -0.265625 0.09375 -0.484375q0.109375 -0.21875 0.265625 -0.390625q0.171875 -0.1875 0.390625 -0.28125q0.234375 -0.09375 0.5 -0.09375zm6.5854187 3.84375l1.421875 0l0.0625 1.46875q0.390625 -0.46875 0.765625 -0.78125q0.375 -0.3125 0.734375 -0.5q0.359375 -0.203125 0.734375 -0.28125q0.375 -0.078125 0.78125 -0.078125q1.40625 0 2.125 0.84375q0.734375 0.828125 0.734375 2.5l0 5.96875l-1.59375 0l0 -5.84375q0 -1.078125 -0.40625 -1.578125q-0.390625 -0.515625 -1.1875 -0.515625q-0.28125 0 -0.5625 0.09375q-0.28125 0.078125 -0.578125 0.296875q-0.296875 0.203125 -0.65625 0.578125q-0.34375 0.359375 -0.78125 0.90625l0 6.0625l-1.59375 0l0 -9.140625zm27.045837 9.140625l0 -6.5625q0 -0.4375 -0.03125 -0.703125q-0.03125 -0.28125 -0.109375 -0.4375q-0.0625 -0.15625 -0.171875 -0.21875q-0.109375 -0.0625 -0.25 -0.0625q-0.1875 0 -0.34375 0.109375q-0.15625 0.109375 -0.34375 0.359375q-0.171875 0.234375 -0.390625 0.640625q-0.203125 0.40625 -0.5 1.0l0 5.875l-1.4375 0l0 -6.390625q0 -0.5 -0.03125 -0.8125q-0.03125 -0.3125 -0.109375 -0.484375q-0.0625 -0.171875 -0.171875 -0.234375q-0.109375 -0.0625 -0.265625 -0.0625q-0.171875 0 -0.3125 0.09375q-0.140625 0.078125 -0.328125 0.328125q-0.171875 0.234375 -0.390625 0.640625q-0.21875 0.40625 -0.515625 1.046875l0 5.875l-1.46875 0l0 -9.140625l1.21875 0l0.078125 1.734375q0.234375 -0.515625 0.453125 -0.875q0.21875 -0.375 0.453125 -0.59375q0.25 -0.21875 0.515625 -0.328125q0.265625 -0.109375 0.59375 -0.109375q0.734375 0 1.109375 0.484375q0.390625 0.484375 0.390625 1.5q0.21875 -0.484375 0.421875 -0.84375q0.21875 -0.375 0.453125 -0.625q0.25 -0.25 0.53125 -0.375q0.296875 -0.140625 0.6875 -0.140625q1.71875 0 1.71875 2.65625l0 6.65625l-1.453125 0zm9.601044 0l-0.03125 -1.234375q-0.75 0.75 -1.515625 1.078125q-0.765625 0.3125 -1.625 0.3125q-0.78125 0 -1.34375 -0.1875q-0.546875 -0.203125 -0.90625 -0.546875q-0.359375 -0.359375 -0.53125 -0.828125q-0.15625 -0.484375 -0.15625 -1.03125q0 -1.375 1.015625 -2.15625q1.03125 -0.78125 3.03125 -0.78125l1.890625 0l0 -0.796875q0 -0.8125 -0.515625 -1.296875q-0.515625 -0.5 -1.578125 -0.5q-0.78125 0 -1.53125 0.1875q-0.75 0.171875 -1.546875 0.484375l0 -1.4375q0.296875 -0.109375 0.65625 -0.203125q0.375 -0.109375 0.78125 -0.1875q0.40625 -0.078125 0.859375 -0.125q0.453125 -0.0625 0.90625 -0.0625q0.828125 0 1.484375 0.1875q0.671875 0.171875 1.125 0.546875q0.46875 0.375 0.703125 0.953125q0.25 0.5625 0.25 1.328125l0 6.296875l-1.421875 0zm-0.171875 -4.15625l-2.015625 0q-0.578125 0 -1.015625 0.125q-0.421875 0.109375 -0.703125 0.328125q-0.265625 0.21875 -0.40625 0.53125q-0.125 0.296875 -0.125 0.671875q0 0.265625 0.078125 0.515625q0.078125 0.234375 0.265625 0.421875q0.1875 0.1875 0.46875 0.296875q0.296875 0.109375 0.71875 0.109375q0.546875 0 1.25 -0.328125q0.703125 -0.34375 1.484375 -1.0625l0 -1.609375zm12.382294 -0.578125q0 1.21875 -0.34375 2.140625q-0.34375 0.90625 -0.953125 1.515625q-0.59375 0.59375 -1.421875 0.890625q-0.8125 0.296875 -1.765625 0.296875q-0.4375 0 -0.875 -0.046875q-0.4375 -0.046875 -0.875 -0.15625l0 3.828125l-1.59375 0l0 -12.875l1.421875 0l0.09375 1.53125q0.6875 -0.9375 1.453125 -1.3125q0.78125 -0.390625 1.6875 -0.390625q0.78125 0 1.375 0.328125q0.59375 0.328125 0.984375 0.9375q0.40625 0.59375 0.609375 1.4375q0.203125 0.828125 0.203125 1.875zm-1.625 0.0625q0 -0.71875 -0.109375 -1.3125q-0.109375 -0.609375 -0.34375 -1.03125q-0.21875 -0.421875 -0.578125 -0.65625q-0.34375 -0.25 -0.84375 -0.25q-0.296875 0 -0.609375 0.09375q-0.3125 0.09375 -0.640625 0.328125q-0.328125 0.21875 -0.703125 0.59375q-0.359375 0.359375 -0.78125 0.90625l0 4.4375q0.4375 0.171875 0.921875 0.28125q0.484375 0.109375 0.9375 0.109375q1.28125 0 2.015625 -0.875q0.734375 -0.875 0.734375 -2.625z" fill-rule="nonzero"/><path fill="#010000" fill-opacity="0.0" d="m169.84883 29.93322l153.85939 0l0 21.844574l-153.85939 0l0 -21.844574z" fill-rule="nonzero"/><path fill="#000000" d="m177.50508 34.64814l0 8.984375q0 0.953125 -0.28125 1.6875q-0.265625 0.75 -0.78125 1.25q-0.515625 0.515625 -1.265625 0.78125q-0.734375 0.265625 -1.65625 0.265625q-0.671875 0 -1.3125 -0.125q-0.640625 -0.125 -1.171875 -0.34375l0 -1.515625q0.28125 0.15625 0.609375 0.265625q0.328125 0.125 0.671875 0.203125q0.34375 0.078125 0.6875 0.125q0.34375 0.046875 0.671875 0.046875q1.03125 0 1.625 -0.65625q0.59375 -0.65625 0.59375 -1.9375l0 -7.71875l-4.484375 0l0 -1.3125l6.09375 0zm-0.953125 -3.84375q0.25 0 0.484375 0.09375q0.234375 0.09375 0.390625 0.28125q0.171875 0.171875 0.265625 0.40625q0.09375 0.21875 0.09375 0.46875q0 0.265625 -0.09375 0.5q-0.09375 0.21875 -0.265625 0.390625q-0.15625 0.171875 -0.390625 0.265625q-0.234375 0.09375 -0.484375 0.09375q-0.265625 0 -0.5 -0.09375q-0.234375 -0.09375 -0.40625 -0.265625q-0.15625 -0.171875 -0.25 -0.390625q-0.09375 -0.234375 -0.09375 -0.5q0 -0.25 0.09375 -0.46875q0.09375 -0.234375 0.25 -0.40625q0.171875 -0.1875 0.40625 -0.28125q0.234375 -0.09375 0.5 -0.09375zm4.5541687 8.609375q0 -0.984375 0.25 -1.859375q0.265625 -0.890625 0.796875 -1.5625q0.546875 -0.671875 1.390625 -1.0625q0.859375 -0.390625 2.03125 -0.390625q0.46875 0 0.921875 0.078125q0.453125 0.0625 0.953125 0.21875l1.40625 -0.359375l0 13.046875l-1.59375 0l0 -3.453125l0.078125 -1.953125q-1.28125 1.828125 -3.078125 1.828125q-0.796875 0 -1.390625 -0.3125q-0.59375 -0.328125 -0.984375 -0.921875q-0.390625 -0.609375 -0.59375 -1.453125q-0.1875 -0.84375 -0.1875 -1.84375zm1.609375 -0.109375q0 0.765625 0.109375 1.375q0.125 0.609375 0.359375 1.03125q0.234375 0.421875 0.578125 0.65625q0.359375 0.234375 0.828125 0.234375q0.59375 0 1.265625 -0.53125q0.671875 -0.546875 1.40625 -1.609375l0 -4.234375q-0.359375 -0.1875 -0.828125 -0.296875q-0.453125 -0.109375 -0.96875 -0.109375q-1.34375 0 -2.046875 0.890625q-0.703125 0.890625 -0.703125 2.59375zm24.077087 -8.390625l-0.265625 4.28125l-1.5625 0l-0.25 -4.28125l2.078125 0zm9.147919 10.0q0.296875 0 0.578125 0.125q0.28125 0.125 0.484375 0.328125q0.203125 0.203125 0.3125 0.484375q0.125 0.28125 0.125 0.59375q0 0.3125 -0.125 0.59375q-0.109375 0.265625 -0.3125 0.46875q-0.203125 0.203125 -0.484375 0.3125q-0.28125 0.125 -0.578125 0.125q-0.328125 0 -0.609375 -0.125q-0.265625 -0.109375 -0.46875 -0.3125q-0.203125 -0.203125 -0.328125 -0.46875q-0.109375 -0.28125 -0.109375 -0.59375q0 -0.3125 0.109375 -0.59375q0.125 -0.28125 0.328125 -0.484375q0.203125 -0.203125 0.46875 -0.328125q0.28125 -0.125 0.609375 -0.125zm14.007294 2.875l-1.59375 0l0 -5.84375q0 -1.046875 -0.390625 -1.5625q-0.390625 -0.53125 -1.140625 -0.53125q-0.3125 0 -0.59375 0.09375q-0.28125 0.078125 -0.578125 0.296875q-0.296875 0.203125 -0.65625 0.578125q-0.359375 0.359375 -0.8125 0.90625l0 6.0625l-1.59375 0l0 -12.875l1.59375 0l0 3.734375l-0.0625 1.4375q0.375 -0.453125 0.734375 -0.75q0.359375 -0.3125 0.71875 -0.5q0.359375 -0.1875 0.734375 -0.265625q0.375 -0.09375 0.78125 -0.09375q1.359375 0 2.109375 0.84375q0.75 0.828125 0.75 2.5l0 5.96875zm10.866669 -4.640625q0 1.0625 -0.3125 1.953125q-0.296875 0.890625 -0.859375 1.53125q-0.5625 0.625 -1.375 0.96875q-0.8125 0.34375 -1.84375 0.34375q-0.984375 0 -1.765625 -0.296875q-0.765625 -0.3125 -1.3125 -0.890625q-0.546875 -0.59375 -0.828125 -1.46875q-0.28125 -0.875 -0.28125 -2.015625q0 -1.0625 0.296875 -1.9375q0.296875 -0.890625 0.859375 -1.515625q0.5625 -0.640625 1.375 -0.984375q0.8125 -0.359375 1.84375 -0.359375q0.984375 0 1.765625 0.3125q0.78125 0.296875 1.3125 0.890625q0.546875 0.578125 0.828125 1.453125q0.296875 0.875 0.296875 2.015625zm-1.625 0.0625q0 -0.84375 -0.1875 -1.46875q-0.1875 -0.640625 -0.53125 -1.0625q-0.34375 -0.421875 -0.84375 -0.640625q-0.5 -0.21875 -1.109375 -0.21875q-0.703125 0 -1.21875 0.28125q-0.5 0.28125 -0.828125 0.75q-0.3125 0.453125 -0.46875 1.078125q-0.15625 0.609375 -0.15625 1.28125q0 0.859375 0.1875 1.5q0.1875 0.625 0.53125 1.046875q0.359375 0.421875 0.84375 0.640625q0.5 0.21875 1.109375 0.21875q0.71875 0 1.21875 -0.28125q0.5 -0.28125 0.828125 -0.734375q0.328125 -0.46875 0.46875 -1.078125q0.15625 -0.625 0.15625 -1.3125zm11.163544 2.078125q0 0.484375 -0.171875 0.875q-0.15625 0.375 -0.4375 0.671875q-0.28125 0.296875 -0.65625 0.515625q-0.375 0.203125 -0.796875 0.34375q-0.421875 0.125 -0.875 0.1875q-0.453125 0.0625 -0.875 0.0625q-0.921875 0 -1.703125 -0.078125q-0.78125 -0.078125 -1.53125 -0.265625l0 -1.453125q0.796875 0.234375 1.59375 0.359375q0.796875 0.109375 1.578125 0.109375q1.140625 0 1.6875 -0.3125q0.546875 -0.3125 0.546875 -0.890625q0 -0.234375 -0.09375 -0.421875q-0.078125 -0.203125 -0.3125 -0.375q-0.21875 -0.1875 -0.703125 -0.375q-0.484375 -0.203125 -1.3125 -0.4375q-0.609375 -0.1875 -1.140625 -0.421875q-0.515625 -0.234375 -0.90625 -0.546875q-0.375 -0.328125 -0.59375 -0.75q-0.21875 -0.421875 -0.21875 -1.015625q0 -0.375 0.171875 -0.828125q0.171875 -0.453125 0.59375 -0.84375q0.4375 -0.40625 1.171875 -0.65625q0.734375 -0.265625 1.8125 -0.265625q0.546875 0 1.203125 0.0625q0.65625 0.0625 1.359375 0.203125l0 1.40625q-0.75 -0.171875 -1.421875 -0.25q-0.65625 -0.09375 -1.15625 -0.09375q-0.59375 0 -1.0 0.09375q-0.390625 0.078125 -0.65625 0.25q-0.25 0.15625 -0.359375 0.375q-0.109375 0.203125 -0.109375 0.453125q0 0.25 0.09375 0.453125q0.109375 0.1875 0.359375 0.375q0.265625 0.1875 0.71875 0.375q0.46875 0.1875 1.21875 0.40625q0.8125 0.234375 1.359375 0.5q0.5625 0.25 0.90625 0.578125q0.359375 0.3125 0.5 0.71875q0.15625 0.40625 0.15625 0.90625zm10.382278 2.375q-0.53125 0.140625 -1.109375 0.1875q-0.578125 0.0625 -1.171875 0.0625q-1.71875 0 -2.5624847 -0.78125q-0.84375 -0.78125 -0.84375 -2.390625l0 -4.765625l-2.5625 0l0 -1.328125l2.5625 0l0 -2.515625l1.5781097 -0.40625l0 2.921875l4.109375 0l0 1.328125l-4.109375 0l0 4.640625q0 0.984375 0.515625 1.46875q0.53125 0.484375 1.546875 0.484375q0.4375 0 0.953125 -0.0625q0.53125 -0.0625 1.09375 -0.21875l0 1.375zm20.733337 -5.765625l-7.828125 0l0 -1.328125l7.828125 0l0 1.328125zm0 3.171875l-7.828125 0l0 -1.328125l7.828125 0l0 1.328125zm15.827087 -10.15625l-0.25 4.28125l-1.5 0l-0.265625 -4.28125l2.015625 0zm3.546875 0l-0.25 4.28125l-1.5 0l-0.265625 -4.28125l2.015625 0zm7.7416687 -0.75l1.328125 0l-0.234375 1.78125q0.46875 0.046875 0.9375 0.125q0.484375 0.0625 0.890625 0.171875l0 1.40625q-0.5 -0.140625 -1.015625 -0.21875q-0.5 -0.09375 -1.0 -0.140625l-0.515625 3.890625q0.609375 0.234375 1.203125 0.515625q0.609375 0.28125 1.078125 0.65625q0.484375 0.375 0.78125 0.90625q0.296875 0.515625 0.296875 1.234375q0 0.765625 -0.3125 1.359375q-0.296875 0.59375 -0.859375 1.0q-0.546875 0.40625 -1.34375 0.640625q-0.78125 0.234375 -1.71875 0.28125l-0.296875 2.171875l-1.328125 0l0.296875 -2.171875q-0.734375 -0.0625 -1.40625 -0.15625q-0.671875 -0.109375 -1.15625 -0.234375l0 -1.515625q0.5625 0.203125 1.234375 0.328125q0.6875 0.125 1.515625 0.171875l0.546875 -4.09375q-0.59375 -0.234375 -1.171875 -0.5q-0.578125 -0.265625 -1.03125 -0.625q-0.4375 -0.375 -0.71875 -0.875q-0.28125 -0.5 -0.28125 -1.1875q0 -0.578125 0.234375 -1.125q0.234375 -0.546875 0.734375 -0.984375q0.5 -0.453125 1.265625 -0.734375q0.765625 -0.28125 1.828125 -0.34375l0.21875 -1.734375zm-0.40625 3.109375q-1.140625 0.09375 -1.671875 0.53125q-0.515625 0.421875 -0.515625 1.109375q0 0.625 0.421875 1.03125q0.4375 0.40625 1.296875 0.734375l0.46875 -3.40625zm0.109375 9.09375q1.234375 -0.09375 1.78125 -0.546875q0.5625 -0.453125 0.5625 -1.234375q0 -0.328125 -0.125 -0.578125q-0.109375 -0.265625 -0.34375 -0.46875q-0.234375 -0.21875 -0.59375 -0.40625q-0.34375 -0.1875 -0.8125 -0.359375l-0.46875 3.59375zm12.804169 5.15625l-4.5 0l0 -16.921875l4.5 0l0 1.265625l-2.984375 0l0 14.375l2.984375 0l0 1.28125z" fill-rule="nonzero"/><path fill="#000000" fill-opacity="0.0" d="m323.70822 29.93322l235.91776 0l0 21.844574l-235.91776 0l0 -21.844574z" fill-rule="nonzero"/><path fill="#000000" d="m331.36447 34.64814l0 8.984375q0 0.953125 -0.28125 1.6875q-0.265625 0.75 -0.78125 1.25q-0.515625 0.515625 -1.265625 0.78125q-0.734375 0.265625 -1.65625 0.265625q-0.671875 0 -1.3125 -0.125q-0.640625 -0.125 -1.171875 -0.34375l0 -1.515625q0.28125 0.15625 0.609375 0.265625q0.328125 0.125 0.671875 0.203125q0.34375 0.078125 0.6875 0.125q0.34375 0.046875 0.671875 0.046875q1.03125 0 1.625 -0.65625q0.59375 -0.65625 0.59375 -1.9375l0 -7.71875l-4.484375 0l0 -1.3125l6.09375 0zm-0.953125 -3.84375q0.25 0 0.484375 0.09375q0.234375 0.09375 0.390625 0.28125q0.171875 0.171875 0.265625 0.40625q0.09375 0.21875 0.09375 0.46875q0 0.265625 -0.09375 0.5q-0.09375 0.21875 -0.265625 0.390625q-0.15625 0.171875 -0.390625 0.265625q-0.234375 0.09375 -0.484375 0.09375q-0.265625 0 -0.5 -0.09375q-0.234375 -0.09375 -0.40625 -0.265625q-0.15625 -0.171875 -0.25 -0.390625q-0.09375 -0.234375 -0.09375 -0.5q0 -0.25 0.09375 -0.46875q0.09375 -0.234375 0.25 -0.40625q0.171875 -0.1875 0.40625 -0.28125q0.234375 -0.09375 0.5 -0.09375zm4.5541687 8.609375q0 -0.984375 0.25 -1.859375q0.265625 -0.890625 0.796875 -1.5625q0.546875 -0.671875 1.390625 -1.0625q0.859375 -0.390625 2.03125 -0.390625q0.46875 0 0.921875 0.078125q0.453125 0.0625 0.953125 0.21875l1.40625 -0.359375l0 13.046875l-1.59375 0l0 -3.453125l0.078125 -1.953125q-1.28125 1.828125 -3.078125 1.828125q-0.796875 0 -1.390625 -0.3125q-0.59375 -0.328125 -0.984375 -0.921875q-0.390625 -0.609375 -0.59375 -1.453125q-0.1875 -0.84375 -0.1875 -1.84375zm1.609375 -0.109375q0 0.765625 0.109375 1.375q0.125 0.609375 0.359375 1.03125q0.234375 0.421875 0.578125 0.65625q0.359375 0.234375 0.828125 0.234375q0.59375 0 1.265625 -0.53125q0.671875 -0.546875 1.40625 -1.609375l0 -4.234375q-0.359375 -0.1875 -0.828125 -0.296875q-0.453125 -0.109375 -0.96875 -0.109375q-1.34375 0 -2.046875 0.890625q-0.703125 0.890625 -0.703125 2.59375zm22.967712 1.609375q0.296875 0 0.578125 0.125q0.28125 0.125 0.484375 0.328125q0.203125 0.203125 0.3125 0.484375q0.125 0.28125 0.125 0.59375q0 0.3125 -0.125 0.59375q-0.109375 0.265625 -0.3125 0.46875q-0.203125 0.203125 -0.484375 0.3125q-0.28125 0.125 -0.578125 0.125q-0.328125 0 -0.609375 -0.125q-0.265625 -0.109375 -0.46875 -0.3125q-0.203125 -0.203125 -0.328125 -0.46875q-0.109375 -0.28125 -0.109375 -0.59375q0 -0.3125 0.109375 -0.59375q0.125 -0.28125 0.328125 -0.484375q0.203125 -0.203125 0.46875 -0.328125q0.28125 -0.125 0.609375 -0.125zm14.007294 2.875l-1.421875 0l-0.0625 -1.46875q-0.40625 0.46875 -0.78125 0.78125q-0.359375 0.3125 -0.734375 0.515625q-0.359375 0.1875 -0.734375 0.25q-0.359375 0.078125 -0.765625 0.078125q-1.421875 0 -2.140625 -0.828125q-0.71875 -0.828125 -0.71875 -2.5l0 -5.96875l1.59375 0l0 5.84375q0 2.109375 1.578125 2.109375q0.296875 0 0.5625 -0.078125q0.28125 -0.09375 0.578125 -0.3125q0.3125 -0.21875 0.65625 -0.578125q0.359375 -0.359375 0.796875 -0.921875l0 -6.0625l1.59375 0l0 9.140625zm3.2729187 -9.140625l1.453125 0l0.046875 1.6875q0.8125 -0.984375 1.59375 -1.421875q0.796875 -0.4375 1.59375 -0.4375q1.421875 0 2.15625 0.921875q0.734375 0.921875 0.671875 2.734375l-1.59375 0q0.015625 -1.203125 -0.359375 -1.734375q-0.375 -0.546875 -1.109375 -0.546875q-0.3125 0 -0.640625 0.109375q-0.328125 0.109375 -0.671875 0.359375q-0.328125 0.25 -0.71875 0.640625q-0.375 0.390625 -0.8125 0.953125l0 5.875l-1.609375 0l0 -9.140625zm13.007294 -2.421875l-2.703125 0l0 -1.3125l4.296875 0l0 11.546875l2.734375 0l0 1.328125l-7.34375 0l0 -1.328125l3.015625 0l0 -10.234375zm21.811462 15.296875l-1.5 0l0 -18.65625l1.5 0l0 18.65625zm23.452087 -3.734375l-1.59375 0l0 -5.84375q0 -1.046875 -0.390625 -1.5625q-0.390625 -0.53125 -1.140625 -0.53125q-0.3125 0 -0.59375 0.09375q-0.28125 0.078125 -0.578125 0.296875q-0.296875 0.203125 -0.65625 0.578125q-0.359375 0.359375 -0.8125 0.90625l0 6.0625l-1.59375 0l0 -12.875l1.59375 0l0 3.734375l-0.0625 1.4375q0.375 -0.453125 0.734375 -0.75q0.359375 -0.3125 0.71875 -0.5q0.359375 -0.1875 0.734375 -0.265625q0.375 -0.09375 0.78125 -0.09375q1.359375 0 2.109375 0.84375q0.75 0.828125 0.75 2.5l0 5.96875zm10.866669 -4.640625q0 1.0625 -0.3125 1.953125q-0.296875 0.890625 -0.859375 1.53125q-0.5625 0.625 -1.375 0.96875q-0.8125 0.34375 -1.84375 0.34375q-0.984375 0 -1.765625 -0.296875q-0.765625 -0.3125 -1.3125 -0.890625q-0.546875 -0.59375 -0.828125 -1.46875q-0.28125 -0.875 -0.28125 -2.015625q0 -1.0625 0.296875 -1.9375q0.296875 -0.890625 0.859375 -1.515625q0.5625 -0.640625 1.375 -0.984375q0.8125 -0.359375 1.84375 -0.359375q0.984375 0 1.765625 0.3125q0.78125 0.296875 1.3125 0.890625q0.546875 0.578125 0.828125 1.453125q0.296875 0.875 0.296875 2.015625zm-1.625 0.0625q0 -0.84375 -0.1875 -1.46875q-0.1875 -0.640625 -0.53125 -1.0625q-0.34375 -0.421875 -0.84375 -0.640625q-0.5 -0.21875 -1.109375 -0.21875q-0.703125 0 -1.21875 0.28125q-0.5 0.28125 -0.828125 0.75q-0.3125 0.453125 -0.46875 1.078125q-0.15625 0.609375 -0.15625 1.28125q0 0.859375 0.1875 1.5q0.1875 0.625 0.53125 1.046875q0.359375 0.421875 0.84375 0.640625q0.5 0.21875 1.109375 0.21875q0.71875 0 1.21875 -0.28125q0.5 -0.28125 0.828125 -0.734375q0.328125 -0.46875 0.46875 -1.078125q0.15625 -0.625 0.15625 -1.3125zm11.163544 2.078125q0 0.484375 -0.171875 0.875q-0.15625 0.375 -0.4375 0.671875q-0.28125 0.296875 -0.65625 0.515625q-0.375 0.203125 -0.796875 0.34375q-0.421875 0.125 -0.875 0.1875q-0.453125 0.0625 -0.875 0.0625q-0.921875 0 -1.703125 -0.078125q-0.78125 -0.078125 -1.53125 -0.265625l0 -1.453125q0.796875 0.234375 1.59375 0.359375q0.796875 0.109375 1.578125 0.109375q1.140625 0 1.6875 -0.3125q0.546875 -0.3125 0.546875 -0.890625q0 -0.234375 -0.09375 -0.421875q-0.078125 -0.203125 -0.3125 -0.375q-0.21875 -0.1875 -0.703125 -0.375q-0.484375 -0.203125 -1.3125 -0.4375q-0.609375 -0.1875 -1.140625 -0.421875q-0.515625 -0.234375 -0.90625 -0.546875q-0.375 -0.328125 -0.59375 -0.75q-0.21875 -0.421875 -0.21875 -1.015625q0 -0.375 0.171875 -0.828125q0.171875 -0.453125 0.59375 -0.84375q0.4375 -0.40625 1.171875 -0.65625q0.734375 -0.265625 1.8125 -0.265625q0.546875 0 1.203125 0.0625q0.65625 0.0625 1.359375 0.203125l0 1.40625q-0.75 -0.171875 -1.421875 -0.25q-0.65625 -0.09375 -1.15625 -0.09375q-0.59375 0 -1.0 0.09375q-0.390625 0.078125 -0.65625 0.25q-0.25 0.15625 -0.359375 0.375q-0.109375 0.203125 -0.109375 0.453125q0 0.25 0.09375 0.453125q0.109375 0.1875 0.359375 0.375q0.265625 0.1875 0.71875 0.375q0.46875 0.1875 1.21875 0.40625q0.8125 0.234375 1.359375 0.5q0.5625 0.25 0.90625 0.578125q0.359375 0.3125 0.5 0.71875q0.15625 0.40625 0.15625 0.90625zm10.382294 2.375q-0.53125 0.140625 -1.109375 0.1875q-0.578125 0.0625 -1.171875 0.0625q-1.71875 0 -2.5625 -0.78125q-0.84375 -0.78125 -0.84375 -2.390625l0 -4.765625l-2.5625 0l0 -1.328125l2.5625 0l0 -2.515625l1.578125 -0.40625l0 2.921875l4.109375 0l0 1.328125l-4.109375 0l0 4.640625q0 0.984375 0.515625 1.46875q0.53125 0.484375 1.546875 0.484375q0.4375 0 0.953125 -0.0625q0.53125 -0.0625 1.09375 -0.21875l0 1.375zm9.288544 -4.09375l-5.453125 0l0 -1.5l5.453125 0l0 1.5zm11.976044 -7.171875q-1.25 -0.265625 -2.15625 -0.265625q-2.140625 0 -2.140625 2.234375l0 1.609375l4.015625 0l0 1.3125l-4.015625 0l0 6.5l-1.609375 0l0 -6.5l-2.9375 0l0 -1.3125l2.9375 0l0 -1.515625q0 -3.65625 3.8125 -3.65625q0.9375 0 2.09375 0.21875l0 1.375zm-9.578125 2.25l0 0zm12.085419 0l1.453125 0l0.046875 1.6875q0.8125 -0.984375 1.59375 -1.421875q0.796875 -0.4375 1.59375 -0.4375q1.421875 0 2.15625 0.921875q0.734375 0.921875 0.671875 2.734375l-1.59375 0q0.015625 -1.203125 -0.359375 -1.734375q-0.375 -0.546875 -1.109375 -0.546875q-0.3125 0 -0.640625 0.109375q-0.328125 0.109375 -0.671875 0.359375q-0.328125 0.25 -0.71875 0.640625q-0.375 0.390625 -0.8125 0.953125l0 5.875l-1.609375 0l0 -9.140625zm17.851044 4.5q0 1.0625 -0.3125 1.953125q-0.296875 0.890625 -0.859375 1.53125q-0.5625 0.625 -1.375 0.96875q-0.8125 0.34375 -1.84375 0.34375q-0.984375 0 -1.765625 -0.296875q-0.765625 -0.3125 -1.3125 -0.890625q-0.546875 -0.59375 -0.828125 -1.46875q-0.28125 -0.875 -0.28125 -2.015625q0 -1.0625 0.296875 -1.9375q0.296875 -0.890625 0.859375 -1.515625q0.5625 -0.640625 1.375 -0.984375q0.8125 -0.359375 1.84375 -0.359375q0.984375 0 1.765625 0.3125q0.78125 0.296875 1.3125 0.890625q0.546875 0.578125 0.828125 1.453125q0.296875 0.875 0.296875 2.015625zm-1.625 0.0625q0 -0.84375 -0.1875 -1.46875q-0.1875 -0.640625 -0.53125 -1.0625q-0.34375 -0.421875 -0.84375 -0.640625q-0.5 -0.21875 -1.109375 -0.21875q-0.703125 0 -1.21875 0.28125q-0.5 0.28125 -0.828125 0.75q-0.3125 0.453125 -0.46875 1.078125q-0.15625 0.609375 -0.15625 1.28125q0 0.859375 0.1875 1.5q0.1875 0.625 0.53125 1.046875q0.359375 0.421875 0.84375 0.640625q0.5 0.21875 1.109375 0.21875q0.71875 0 1.21875 -0.28125q0.5 -0.28125 0.828125 -0.734375q0.328125 -0.46875 0.46875 -1.078125q0.15625 -0.625 0.15625 -1.3125zm10.444824 4.578125l0 -6.5625q0 -0.4375 -0.03125 -0.703125q-0.03125 -0.28125 -0.109375 -0.4375q-0.0625 -0.15625 -0.171875 -0.21875q-0.109375 -0.0625 -0.25 -0.0625q-0.1875 0 -0.34375 0.109375q-0.15625 0.109375 -0.34375 0.359375q-0.171875 0.234375 -0.390625 0.640625q-0.203125 0.40625 -0.5 1.0l0 5.875l-1.4375 0l0 -6.390625q0 -0.5 -0.03125 -0.8125q-0.03125 -0.3125 -0.109375 -0.484375q-0.0625 -0.171875 -0.171875 -0.234375q-0.109375 -0.0625 -0.265625 -0.0625q-0.17190552 0 -0.31253052 0.09375q-0.140625 0.078125 -0.328125 0.328125q-0.171875 0.234375 -0.390625 0.640625q-0.21875 0.40625 -0.515625 1.046875l0 5.875l-1.46875 0l0 -9.140625l1.21875 0l0.078125 1.734375q0.234375 -0.515625 0.453125 -0.875q0.21875 -0.375 0.453125 -0.59375q0.25 -0.21875 0.515625 -0.328125q0.26565552 -0.109375 0.5937805 -0.109375q0.734375 0 1.109375 0.484375q0.390625 0.484375 0.390625 1.5q0.21875 -0.484375 0.421875 -0.84375q0.21875 -0.375 0.453125 -0.625q0.25 -0.25 0.53125 -0.375q0.296875 -0.140625 0.6875 -0.140625q1.71875 0 1.71875 2.65625l0 6.65625l-1.453125 0zm10.132263 -4.21875l-5.453125 0l0 -1.5l5.453125 0l0 1.5zm11.210449 4.21875l-1.421875 0l-0.0625 -1.46875q-0.40625 0.46875 -0.78125 0.78125q-0.359375 0.3125 -0.734375 0.515625q-0.359375 0.1875 -0.734375 0.25q-0.359375 0.078125 -0.765625 0.078125q-1.421875 0 -2.140625 -0.828125q-0.71875 -0.828125 -0.71875 -2.5l0 -5.96875l1.59375 0l0 5.84375q0 2.109375 1.578125 2.109375q0.296875 0 0.5625 -0.078125q0.28125 -0.09375 0.578125 -0.3125q0.3125 -0.21875 0.65625 -0.578125q0.359375 -0.359375 0.796875 -0.921875l0 -6.0625l1.59375 0l0 9.140625zm3.2728882 -9.140625l1.453125 0l0.046875 1.6875q0.8125 -0.984375 1.59375 -1.421875q0.796875 -0.4375 1.59375 -0.4375q1.421875 0 2.15625 0.921875q0.734375 0.921875 0.671875 2.734375l-1.59375 0q0.015625 -1.203125 -0.359375 -1.734375q-0.375 -0.546875 -1.109375 -0.546875q-0.3125 0 -0.640625 0.109375q-0.328125 0.109375 -0.671875 0.359375q-0.328125 0.25 -0.71875 0.640625q-0.375 0.390625 -0.8125 0.953125l0 5.875l-1.609375 0l0 -9.140625zm13.007263 -2.421875l-2.703125 0l0 -1.3125l4.296875 0l0 11.546875l2.734375 0l0 1.328125l-7.34375 0l0 -1.328125l3.015625 0l0 -10.234375z" fill-rule="nonzero"/><path fill="#010000" fill-opacity="0.0" d="m559.626 29.93322l30.77185 0l0 21.844574l-30.77185 0l0 -21.844574z" fill-rule="nonzero"/><path fill="#000000" d="m566.73535 47.52314l-4.484375 0l0 -1.28125l2.953125 0l0 -14.375l-2.953125 0l0 -1.265625l4.484375 0l0 16.921875zm7.507324 -16.609375l-0.25 4.28125l-1.5 0l-0.265625 -4.28125l2.015625 0zm3.546875 0l-0.25 4.28125l-1.5 0l-0.265625 -4.28125l2.015625 0zm8.522888 0l-0.265625 4.28125l-1.5625 0l-0.25 -4.28125l2.078125 0z" fill-rule="nonzero"/><path fill="#010000" fill-opacity="0.0" d="m590.3978 29.93322l0 0l0 21.844574l0 0l0 -21.844574z" fill-rule="nonzero"/></g></svg>