<svg version="1.1" viewBox="0.0 0.0 290.45669291338584 167.63517060367454" fill="none" stroke="none" stroke-linecap="square" stroke-miterlimit="10" xmlns:xlink="http://www.w3.org/1999/xlink" xmlns="http://www.w3.org/2000/svg"><clipPath id="p.0"><path d="m0 0l290.4567 0l0 167.63518l-290.4567 0l0 -167.63518z" clip-rule="nonzero"/></clipPath><g clip-path="url(#p.0)"><path fill="#000000" fill-opacity="0.0" d="m0 0l290.4567 0l0 167.63518l-290.4567 0z" fill-rule="evenodd"/><path fill="#ffffff" d="m0 0l290.4567 0l0 167.62204l-290.4567 0z" fill-rule="evenodd"/><path stroke="#000000" stroke-width="1.0" stroke-linejoin="round" stroke-linecap="butt" d="m0 0l290.4567 0l0 167.62204l-290.4567 0z" fill-rule="evenodd"/><path fill="#000000" fill-opacity="0.0" d="m20.981302 117.694885l162.01575 0" fill-rule="evenodd"/><path stroke="#000000" stroke-width="3.0" stroke-linejoin="round" stroke-linecap="butt" d="m20.981302 117.69489l144.01573 0" fill-rule="evenodd"/><path fill="#000000" stroke="#000000" stroke-width="3.0" stroke-linecap="butt" d="m164.99706 122.65009l13.614288 -4.9552l-13.614288 -4.9552z" fill-rule="evenodd"/><path fill="#000000" fill-opacity="0.0" d="m234.05124 117.69587l37.35434 0" fill-rule="evenodd"/><path stroke="#000000" stroke-width="3.0" stroke-linejoin="round" stroke-linecap="butt" d="m234.05124 117.69587l19.35434 0" fill-rule="evenodd"/><path fill="#000000" stroke="#000000" stroke-width="3.0" stroke-linecap="butt" d="m253.40558 122.65106l13.614288 -4.9551926l-13.614288 -4.9552z" fill-rule="evenodd"/><path fill="#000000" fill-opacity="0.0" d="m48.90256 117.71588l0 -70.80315l55.2441 0" fill-rule="evenodd"/><path stroke="#000000" stroke-width="3.0" stroke-linejoin="round" stroke-linecap="butt" d="m48.902565 117.71589l0 -70.803154l37.244087 0" fill-rule="evenodd"/><path fill="#000000" stroke="#000000" stroke-width="3.0" stroke-linecap="butt" d="m86.14665 51.86793l13.614296 -4.9551964l-13.614296 -4.9551964z" fill-rule="evenodd"/><path fill="#000000" fill-opacity="0.0" d="m155.20177 46.912735l53.322845 0l0 56.031494" fill-rule="evenodd"/><path stroke="#000000" stroke-width="3.0" stroke-linejoin="round" stroke-linecap="butt" d="m155.20177 46.912735l53.322845 0l0 38.0315" fill-rule="evenodd"/><path fill="#000000" stroke="#000000" stroke-width="3.0" stroke-linecap="butt" d="m203.56941 84.94424l4.9552 13.614296l4.955185 -13.614296z" fill-rule="evenodd"/><path fill="#fff2cc" d="m182.99706 88.16733l51.055115 29.527557l-51.055115 29.527557z" fill-rule="evenodd"/><path stroke="#000000" stroke-width="3.0" stroke-linejoin="round" stroke-linecap="butt" d="m182.99706 88.16733l51.055115 29.527557l-51.055115 29.527557z" fill-rule="evenodd"/><path fill="#cfe2f3" d="m104.14666 21.385176l51.055107 0l0 51.055115l-51.055107 0z" fill-rule="evenodd"/><path stroke="#000000" stroke-width="3.0" stroke-linejoin="round" stroke-linecap="butt" d="m104.14666 21.385176l51.055107 0l0 51.055115l-51.055107 0z" fill-rule="evenodd"/></g></svg>